<svg viewBox="0 0 776 990" xmlns="http://www.w3.org/2000/svg">
  <path d="M57.1388 0C53.1463 0 49.2535 1.24749 46.0047 3.56809C44.6737 4.51878 43.47 5.63603 42.4229 6.89256L42.1583 7.21005C40.0778 9.70669 38.5662 12.6267 37.7288 15.7668L35.8374 22.8598C35.2815 24.9445 34.458 26.9485 33.3876 28.8217L32.9756 29.5427C31.6683 31.8305 29.9773 33.8766 27.9767 35.5914C25.3591 37.8351 22.2704 39.4612 18.9392 40.3495L13.8377 41.71C10.6687 42.555 7.77881 44.2212 5.45972 46.5403C1.96392 50.0361 0 54.7774 0 59.7212L0 931.997C0 936.481 1.78119 940.781 4.95169 943.952C6.95189 945.952 9.42201 947.418 12.1358 948.216L19.5422 950.395C23.1234 951.448 26.3831 953.383 29.0227 956.023C31.6334 958.633 33.5554 961.851 34.6163 965.388L36.9627 973.209C38.2915 977.638 40.8943 981.579 44.4468 984.539C48.6811 988.068 54.0185 990 59.5304 990L718.971 990C723.521 990 727.936 988.451 731.489 985.609C734.436 983.251 736.658 980.109 737.898 976.544L742.46 963.426C743.474 960.513 745.133 957.867 747.314 955.686C749.733 953.267 752.72 951.494 756.001 950.529L763.864 948.216C766.578 947.418 769.048 945.952 771.048 943.952C774.219 940.781 776 936.481 776 931.997L776 59.7212C776 54.7774 774.036 50.0361 770.54 46.5403C768.221 44.2212 765.331 42.555 762.162 41.71L757.119 40.365C753.753 39.4675 750.644 37.7947 748.041 35.4805C744.754 32.5587 742.403 28.7311 741.284 24.478L739.495 17.6801C738.512 13.9442 736.676 10.487 734.132 7.57978L732.447 5.65417C731.487 4.55621 730.385 3.59004 729.171 2.78076C726.451 0.967564 723.256 0 719.987 0L57.1388 0Z" fill="#ffffff"></path>
</svg>